# 3ds Max Wavefront OBJ Exporter v0.97b - (c)2007 guruware
# File Created: 03.05.2016 19:23:31

mtllib ship.mtl

#
# object Box001
#

v  0.0824 0.1892 0.9173
v  0.0000 0.1892 0.9173
v  -0.0000 0.0000 -0.9173
v  0.3520 0.0000 -0.9173
v  -0.0000 0.6462 -0.6119
v  0.0000 0.3106 0.8625
v  0.0348 0.3106 0.8625
v  0.1954 0.4815 -0.6119
v  -0.0000 0.1693 -3.4145
v  -0.3740 0.2471 -3.4145
v  -0.0000 0.3248 -3.4145
v  0.3740 0.2471 -3.4145
v  -0.0824 0.1892 0.9173
v  -0.0824 0.2471 0.9173
v  -0.3520 0.2471 -0.9173
v  -0.3520 0.0000 -0.9173
v  0.3520 0.2471 -0.9173
v  0.0824 0.2471 0.9173
v  0.0000 0.2471 1.1062
v  -0.0824 0.2471 1.1062
v  0.0824 0.2471 1.1062
v  0.0824 0.3049 0.9173
v  0.0000 0.3049 0.9173
v  -0.0824 0.3049 0.9173
v  -0.0000 0.0000 -2.9874
v  0.3520 0.0000 -2.9874
v  -2.2672 -0.4676 -2.6825
v  -2.1430 -0.4676 -3.0392
v  -2.0477 -0.5573 -3.0392
v  -2.1663 -0.5573 -2.6825
v  -0.0000 0.5629 -0.9173
v  -0.0000 0.7771 -2.9874
v  -0.3520 0.4941 -2.9874
v  -0.3520 0.4941 -0.9173
v  2.2672 -0.4676 -2.6825
v  2.1430 -0.4676 -3.0392
v  2.0477 -0.3780 -3.0392
v  2.1663 -0.3780 -2.6825
v  0.3520 0.4941 -0.9173
v  -0.0348 0.3106 0.8625
v  -0.1954 0.4815 -0.6119
v  -0.0000 0.0970 -3.7797
v  0.7223 -0.3702 -3.7797
v  -0.3520 0.0000 -2.9874
v  -0.3520 0.2471 -2.9874
v  -0.9002 0.2471 -3.7797
v  -0.7223 -0.3702 -3.7797
v  -0.0000 0.3971 -3.7797
v  -0.7223 0.8644 -3.7797
v  0.3520 0.4941 -2.9874
v  0.3520 0.2471 -2.9874
v  0.9002 0.2471 -3.7797
v  0.7223 0.8644 -3.7797
v  -0.3520 0.2471 -1.0039
v  -0.3520 0.0866 -1.0039
v  -0.2238 0.4075 -2.9008
v  -0.3520 0.4075 -1.0039
v  -0.2238 0.2471 -2.9008
v  -0.2238 0.0866 -2.9008
v  0.3520 0.2471 -1.0039
v  0.3520 0.4075 -1.0039
v  0.2238 0.0866 -2.9008
v  0.3520 0.0866 -1.0039
v  0.2238 0.2471 -2.9008
v  0.2238 0.4075 -2.9008
v  -0.8701 0.0859 -2.8587
v  -1.4296 -0.1559 -2.9070
v  -1.5218 -0.1511 -2.1997
v  -0.9710 0.0865 -1.6837
v  -2.0477 -0.3780 -3.0392
v  2.0477 -0.5573 -3.0392
v  2.1663 -0.5573 -2.6825
v  1.5218 -0.1511 -2.1997
v  1.4296 -0.1559 -2.9070
v  0.8701 0.0859 -2.8587
v  0.9710 0.0865 -1.6837
v  0.5335 0.5078 -3.9767
v  0.6065 0.5551 -3.9767
v  0.6245 0.4926 -3.9767
v  -0.6245 0.4926 -3.9767
v  -0.6065 0.5551 -3.9767
v  -0.5335 0.5078 -3.9767
v  -0.5335 -0.0136 -3.9767
v  -0.6065 -0.0609 -3.9767
v  -0.6245 0.0015 -3.9767
v  0.6245 0.0015 -3.9767
v  0.6065 -0.0609 -3.9767
v  0.5335 -0.0136 -3.9767
v  -2.1663 -0.3780 -2.6825
v  -0.3106 0.3278 -2.8104
v  -0.4201 0.3240 -1.1677
v  -1.9891 -0.3978 -2.9553
v  -2.0727 -0.3886 -2.7158
v  0.4201 0.3240 -1.1677
v  0.3106 0.3278 -2.8104
v  2.0727 -0.3886 -2.7158
v  1.9891 -0.3978 -2.9553
v  0.7017 0.4238 -3.7797
v  0.6390 0.6417 -3.7797
v  0.3840 0.4768 -3.7797
v  -0.3840 0.4768 -3.7797
v  -0.6390 0.6417 -3.7797
v  -0.7018 0.4238 -3.7797
v  -0.7018 0.0703 -3.7797
v  -0.6390 -0.1476 -3.7797
v  -0.3840 0.0174 -3.7797
v  0.3840 0.0174 -3.7797
v  0.6390 -0.1476 -3.7797
v  0.7017 0.0703 -3.7797
v  0.7017 0.4238 -4.0867
v  0.6390 0.6417 -4.0867
v  0.3840 0.4768 -4.0867
v  -0.3840 0.4768 -4.0867
v  -0.6390 0.6417 -4.0867
v  -0.7018 0.4238 -4.0867
v  -0.7018 0.0703 -4.0867
v  -0.6390 -0.1476 -4.0867
v  -0.3840 0.0174 -4.0867
v  0.3840 0.0174 -4.0867
v  0.6390 -0.1476 -4.0867
v  0.7017 0.0703 -4.0867
v  0.6245 0.4926 -4.0867
v  0.6065 0.5551 -4.0867
v  0.5335 0.5078 -4.0867
v  -0.5335 0.5078 -4.0867
v  -0.6065 0.5551 -4.0867
v  -0.6245 0.4926 -4.0867
v  -0.6245 0.0015 -4.0867
v  -0.6065 -0.0609 -4.0867
v  -0.5335 -0.0136 -4.0867
v  0.5335 -0.0136 -4.0867
v  0.6065 -0.0609 -4.0867
v  0.6245 0.0015 -4.0867
v  -1.6079 -0.1577 -2.7753
v  -1.9122 -0.2987 -2.8011
v  -1.9298 -0.2819 -2.7693
v  -1.6395 -0.1668 -2.4997
v  -0.7890 0.1924 -1.7938
v  -0.5901 0.3138 -1.5536
v  -0.5360 0.3183 -2.6160
v  -0.7327 0.1908 -2.6380
v  1.9298 -0.2819 -2.7693
v  1.9122 -0.2987 -2.8011
v  1.6079 -0.1577 -2.7753
v  1.6395 -0.1668 -2.4997
v  0.5360 0.3183 -2.6160
v  0.5901 0.3138 -1.5536
v  0.7890 0.1924 -1.7938
v  0.7327 0.1908 -2.6380
v  -1.9536 -0.3456 -2.7521
v  -1.9186 -0.3604 -2.8386
v  -1.5947 -0.1982 -2.4176
v  -1.5472 -0.1928 -2.8069
v  -0.4195 0.2855 -2.7092
v  -0.5065 0.2812 -1.3958
v  -0.7780 0.1278 -2.7401
v  -0.8650 0.1292 -1.7308
v  1.9186 -0.3604 -2.8386
v  1.9536 -0.3456 -2.7521
v  1.5472 -0.1928 -2.8069
v  1.5947 -0.1982 -2.4176
v  0.5065 0.2812 -1.3958
v  0.4195 0.2855 -2.7092
v  0.8650 0.1292 -1.7308
v  0.7780 0.1278 -2.7401
# 165 vertices

vn 0.0000 -0.9947 0.1026
vn 0.0000 0.9790 0.2038
vn 0.0000 0.9751 0.2220
vn 0.0642 0.9734 0.2201
vn 0.6365 0.7552 0.1569
vn -0.0000 0.0000 -1.0000
vn -0.9894 0.0000 0.1454
vn 0.9894 0.0000 0.1454
vn 0.0000 -0.9562 0.2929
vn 1.0000 0.0000 -0.0000
vn 0.0000 0.9562 0.2929
vn -1.0000 0.0000 0.0000
vn 0.0000 -1.0000 -0.0000
vn -0.6661 -0.7089 -0.2319
vn -0.6484 -0.7301 -0.2157
vn -0.6245 0.7769 0.0804
vn -0.1916 0.9815 0.0000
vn 0.6661 0.7089 -0.2319
vn 0.6484 0.7301 -0.2157
vn 0.6309 0.7485 -0.2043
vn 0.1898 0.9722 0.1374
vn 0.0000 0.9947 0.1026
vn -0.1802 0.9746 0.1326
vn 0.1654 0.9782 0.1252
vn -0.0130 0.9934 0.1138
vn -0.0000 -0.9926 -0.1215
vn -0.5380 -0.8317 0.1372
vn -0.8224 0.0000 0.5690
vn -0.8318 -0.2397 0.5007
vn -0.5869 0.7300 -0.3501
vn 0.5380 0.8317 0.1372
vn 0.8224 0.0000 0.5690
vn 0.8318 0.2397 0.5007
vn -0.5597 -0.8287 0.0000
vn -0.9955 0.0673 -0.0673
vn -0.5597 0.0000 0.8287
vn -0.5422 0.8394 -0.0366
vn 0.5597 0.8287 -0.0000
vn 0.9955 -0.0673 -0.0673
vn 0.5597 0.0000 0.8287
vn 0.5422 -0.8394 -0.0366
vn -0.6591 0.0000 0.7520
vn -0.4685 -0.5275 0.7087
vn -0.3920 0.9182 -0.0574
vn -0.3701 0.9284 -0.0322
vn 0.1177 -0.1253 -0.9851
vn 0.0757 0.0000 -0.9971
vn 0.3167 -0.9483 0.0214
vn 0.3237 -0.9400 0.1077
vn 0.6080 0.6845 0.4022
vn 0.6791 0.0000 0.7340
vn -0.3313 -0.9433 0.0224
vn -0.2609 -0.9615 0.0868
vn -0.0719 0.0000 -0.9974
vn -0.0550 0.0585 -0.9968
vn 0.3920 0.9182 -0.0574
vn 0.3701 0.9284 -0.0322
vn -0.6365 0.7552 0.1569
vn -0.0642 0.9734 0.2201
vn -0.6677 0.7106 -0.2221
vn -0.6470 0.7285 -0.2252
vn 0.6266 0.7794 -0.0000
vn 0.1906 0.9764 0.1011
vn 0.6677 -0.7106 -0.2221
vn 0.6470 -0.7285 -0.2252
vn -0.1898 0.9722 0.1374
vn -0.6309 0.7485 -0.2043
vn 0.5380 -0.8317 0.1372
vn -0.8318 0.2397 0.5007
vn -0.5380 0.8317 0.1372
vn 0.5869 0.7300 -0.3501
vn 0.8318 -0.2397 0.5007
vn -0.6791 0.0000 0.7340
vn -0.6080 0.6845 0.4022
vn 0.0550 0.0585 -0.9968
vn 0.0719 0.0000 -0.9974
vn 0.4685 -0.5275 0.7087
vn 0.6591 0.0000 0.7520
vn -0.0757 0.0000 -0.9971
vn -0.1177 -0.1253 -0.9851
vn -0.1600 -0.9598 -0.2305
vn -0.1997 -0.9612 -0.1904
vn -0.1614 0.9681 -0.1917
vn -0.1952 0.9396 -0.2812
vn 0.1600 0.9598 -0.2305
vn 0.1997 0.9612 -0.1904
vn 0.1614 -0.9681 -0.1917
vn 0.1952 -0.9396 -0.2812
vn -0.7022 0.7104 -0.0475
vn -0.7274 0.6846 -0.0469
vn -0.3811 0.8045 0.4556
vn -0.3959 0.8432 0.3637
vn 0.1269 0.9910 0.0422
vn 0.2529 0.9662 0.0512
vn 0.0555 0.8799 -0.4718
vn -0.0339 0.9211 -0.3878
vn 0.7251 0.6869 -0.0490
vn 0.7009 0.7118 -0.0451
vn 0.0356 0.9194 -0.3918
vn -0.0669 0.8773 -0.4752
vn -0.2223 0.9722 0.0739
vn -0.1126 0.9936 0.0012
vn 0.3912 0.8434 0.3684
vn 0.3858 0.8009 0.4580
vn 0.9609 0.2769 -0.0000
vn -0.1644 -0.9864 0.0000
vn -0.5432 0.8396 -0.0000
vn -0.5432 0.8396 0.0000
vn 0.5432 0.8396 -0.0000
vn 0.1644 -0.9864 -0.0000
vn -0.9609 0.2769 0.0000
vn -0.9609 -0.2769 0.0000
vn 0.1644 0.9864 0.0000
vn 0.5432 -0.8396 -0.0000
vn -0.5432 -0.8396 0.0000
vn -0.1644 0.9864 0.0000
vn 0.9609 -0.2769 -0.0000
vn 0.1644 0.9864 -0.0000
vn -0.3050 0.7628 -0.5701
vn -0.3602 0.9328 -0.0104
vn -0.5016 0.8648 -0.0220
vn -0.5406 0.8404 -0.0377
vn 0.3050 0.7628 -0.5701
vn 0.3602 0.9328 -0.0104
vn 0.5016 0.8648 -0.0220
vn 0.5406 0.8404 -0.0377
vn -0.3796 0.9099 -0.1675
vn -0.1436 0.9643 -0.2226
vn -0.3140 0.9442 -0.0994
vn -0.3495 0.9362 -0.0374
vn -0.3378 0.9399 -0.0505
vn -0.4502 0.8919 -0.0426
vn -0.3919 0.9182 -0.0580
vn -0.3980 0.9077 -0.1331
vn -0.3809 0.9243 -0.0233
vn -0.3942 0.9187 -0.0231
vn -0.3955 0.9183 -0.0174
vn -0.3987 0.9159 -0.0460
vn -0.3866 0.9217 -0.0336
vn -0.3776 0.9254 -0.0338
vn -0.3678 0.9293 -0.0351
vn -0.3792 0.9252 -0.0139
vn 0.2816 0.9500 -0.1348
vn 0.4052 0.8599 -0.3105
vn 0.3857 0.9153 -0.1158
vn 0.4074 0.9121 -0.0467
vn 0.4103 0.9100 -0.0598
vn 0.3190 0.9474 -0.0258
vn 0.3533 0.9340 -0.0527
vn 0.2886 0.9512 -0.1094
vn 0.3923 0.9195 -0.0240
vn 0.3800 0.9247 -0.0222
vn 0.3810 0.9244 -0.0187
vn 0.3588 0.9326 -0.0392
vn 0.3785 0.9250 -0.0329
vn 0.3869 0.9215 -0.0346
vn 0.3936 0.9184 -0.0394
vn 0.4016 0.9157 -0.0117
vn -0.8892 0.2258 -0.3979
vn -0.6712 0.4353 -0.6000
vn -0.7008 0.4491 0.5542
vn -0.7015 0.4185 0.5768
vn 0.5285 0.8455 0.0763
vn 0.4670 0.8804 0.0825
vn -0.1655 0.5252 -0.8348
vn -0.1574 0.4962 -0.8538
vn 0.2876 0.9575 0.0222
vn 0.3292 0.9440 0.0207
vn -0.3455 0.8597 -0.3764
vn -0.3503 0.6558 -0.6688
vn -0.6666 0.7431 -0.0585
vn -0.7681 0.6382 -0.0525
vn -0.6808 0.5567 0.4760
vn -0.5935 0.8001 0.0869
vn 0.8528 0.3337 -0.4017
vn 0.8248 0.1629 -0.5414
vn 0.1533 0.5013 -0.8516
vn 0.1725 0.5251 -0.8334
vn -0.4827 0.8729 0.0711
vn -0.5327 0.8416 0.0888
vn 0.7052 0.4186 0.5723
vn 0.6958 0.4566 0.5544
vn -0.3230 0.9461 0.0245
vn -0.2849 0.9584 0.0185
vn 0.5291 0.8267 0.1912
vn 0.8020 0.3352 0.4944
vn 0.7559 0.6514 -0.0660
vn 0.6609 0.7491 -0.0455
vn 0.2754 0.7456 -0.6068
vn 0.4992 0.8189 -0.2831
# 190 vertex normals

vt 1.0000 1.0000 0.0000
vt 0.5000 1.0000 0.0000
vt 0.5000 0.0000 0.0000
vt 1.0000 0.0000 0.0000
vt 0.0000 1.0000 0.0000
vt 0.0000 0.0000 0.0000
vt 1.0000 0.5000 0.0000
vt 0.0000 0.5000 0.0000
vt 0.5000 0.5000 0.0000
# 9 texture coords

g Box001
usemtl 02___Default
s 2
f 1/1/1 2/2/1 3/3/1 
f 3/3/1 4/4/1 1/1/1 
usemtl 01___Default
s 4
f 5/3/2 6/2/3 7/5/4 
f 7/5/4 8/6/5 5/3/2 
usemtl 02___Default
s 8
f 9/3/6 10/7/6 11/2/6 
f 11/2/6 12/8/6 9/3/6 
s 16
f 13/4/7 14/7/7 15/8/7 
f 15/8/7 16/6/7 13/4/7 
s 64
f 1/6/8 4/4/8 17/7/8 
f 17/7/8 18/8/8 1/6/8 
s off
f 2/3/9 19/9/9 20/8/9 
f 20/8/9 13/6/9 2/3/9 
f 21/7/10 1/4/10 18/7/10 
f 18/7/10 22/1/10 21/7/10 
f 23/2/11 19/9/11 21/7/11 
f 21/7/11 22/1/11 23/2/11 
f 20/8/12 24/5/12 14/8/12 
f 14/8/12 13/6/12 20/8/12 
f 3/3/13 25/3/13 26/6/13 
f 26/6/13 4/6/13 3/3/13 
f 27/7/14 28/7/14 29/4/14 
f 29/4/15 30/4/15 27/7/15 
f 31/2/16 32/2/16 33/1/16 
f 33/1/17 34/1/17 31/2/17 
f 35/8/18 36/8/18 37/5/18 
f 37/5/19 38/5/19 35/8/19 
f 31/3/20 5/3/20 8/6/20 
f 8/6/21 39/6/21 31/3/21 
f 34/4/22 24/1/22 40/1/22 
f 40/1/23 41/4/23 34/4/23 
f 23/2/22 6/2/22 40/1/22 
f 40/1/22 24/1/22 23/2/22 
f 22/5/24 39/6/24 8/6/24 
f 8/6/25 7/5/25 22/5/25 
f 26/6/26 25/3/26 42/3/26 
f 42/3/27 43/6/27 26/6/27 
f 44/4/28 45/7/28 46/7/28 
f 46/7/29 47/4/29 44/4/29 
f 33/1/30 32/2/30 48/2/30 
f 48/2/31 49/1/31 33/1/31 
f 50/5/32 51/8/32 52/8/32 
f 52/8/33 53/5/33 50/5/33 
f 15/7/12 54/7/12 55/4/12 
f 55/4/12 16/4/12 15/7/12 
f 34/1/34 33/1/34 56/1/34 
f 56/1/35 57/1/35 34/1/35 
f 45/7/36 58/7/36 56/1/36 
f 56/1/36 33/1/36 45/7/36 
f 44/4/12 16/4/12 55/4/12 
f 55/4/37 59/4/37 44/4/37 
f 17/8/10 60/8/10 61/5/10 
f 61/5/10 39/5/10 17/8/10 
f 4/6/38 26/6/38 62/6/38 
f 62/6/39 63/6/39 4/6/39 
f 51/8/40 64/8/40 62/6/40 
f 62/6/40 26/6/40 51/8/40 
f 50/5/10 39/5/10 61/5/10 
f 61/5/41 65/5/41 50/5/41 
f 55/4/42 54/7/42 27/7/42 
f 27/7/43 30/4/43 55/4/43 
f 66/1/44 67/1/44 68/1/44 
f 68/1/45 69/1/45 66/1/45 
f 58/7/46 28/7/46 70/1/46 
f 70/1/47 56/1/47 58/7/47 
f 59/4/48 55/4/48 30/4/48 
f 30/4/49 29/4/49 59/4/49 
f 60/8/50 35/8/50 38/5/50 
f 38/5/51 61/5/51 60/8/51 
f 63/6/52 62/6/52 71/6/52 
f 71/6/53 72/6/53 63/6/53 
f 62/6/54 64/8/54 36/8/54 
f 36/8/55 71/6/55 62/6/55 
f 73/5/56 74/5/56 75/5/56 
f 75/5/57 76/5/57 73/5/57 
s 2
f 13/5/1 16/6/1 3/3/1 
f 3/3/1 2/2/1 13/5/1 
usemtl 01___Default
s 4
f 5/3/2 41/4/58 40/1/59 
f 40/1/59 6/2/3 5/3/2 
usemtl 02___Default
s 8
f 77/2/6 78/5/6 79/8/6 
f 80/7/6 81/1/6 82/2/6 
f 83/3/6 84/4/6 85/7/6 
f 86/8/6 87/6/6 88/3/6 
s 16
f 24/1/7 34/5/7 15/8/7 
f 15/8/7 14/7/7 24/1/7 
s 64
f 17/7/8 39/1/8 22/5/8 
f 22/5/8 18/8/8 17/7/8 
s off
f 1/4/9 21/7/9 19/9/9 
f 19/9/9 2/3/9 1/4/9 
f 24/5/11 20/8/11 19/9/11 
f 19/9/11 23/2/11 24/5/11 
f 16/4/13 44/4/13 25/3/13 
f 25/3/13 3/3/13 16/4/13 
f 89/1/60 70/1/60 28/7/60 
f 28/7/61 27/7/61 89/1/61 
f 39/5/62 50/5/62 32/2/62 
f 32/2/63 31/2/63 39/5/63 
f 72/6/64 71/6/64 36/8/64 
f 36/8/65 35/8/65 72/6/65 
f 31/3/66 34/4/66 41/4/66 
f 41/4/67 5/3/67 31/3/67 
f 23/2/22 22/5/22 7/5/22 
f 7/5/22 6/2/22 23/2/22 
f 44/4/68 47/4/68 42/3/68 
f 42/3/26 25/3/26 44/4/26 
f 33/1/69 49/1/69 46/7/69 
f 46/7/28 45/7/28 33/1/28 
f 50/5/70 53/5/70 48/2/70 
f 48/2/71 32/2/71 50/5/71 
f 26/6/72 43/6/72 52/8/72 
f 52/8/32 51/8/32 26/6/32 
f 15/7/12 34/1/12 57/1/12 
f 57/1/12 54/7/12 15/7/12 
f 45/7/36 44/4/36 59/4/36 
f 59/4/36 58/7/36 45/7/36 
f 17/8/10 4/6/10 63/6/10 
f 63/6/10 60/8/10 17/8/10 
f 51/8/40 50/5/40 65/5/40 
f 65/5/40 64/8/40 51/8/40 
f 54/7/73 57/1/73 89/1/73 
f 89/1/74 27/7/74 54/7/74 
f 59/4/75 29/4/75 28/7/75 
f 28/7/76 58/7/76 59/4/76 
f 63/6/77 72/6/77 35/8/77 
f 35/8/78 60/8/78 63/6/78 
f 64/8/79 65/5/79 37/5/79 
f 37/5/80 36/8/80 64/8/80 
f 48/2/81 52/8/81 12/8/81 
f 12/8/82 11/2/82 48/2/82 
f 52/8/83 42/3/83 9/3/83 
f 9/3/84 12/8/84 52/8/84 
f 42/3/85 46/7/85 10/7/85 
f 10/7/86 9/3/86 42/3/86 
f 46/7/87 48/2/87 11/2/87 
f 11/2/88 10/7/88 46/7/88 
f 57/1/89 56/1/89 90/1/89 
f 90/1/90 91/1/90 57/1/90 
f 56/1/91 70/1/91 92/1/91 
f 56/1/92 92/1/92 67/1/92 
f 56/1/92 67/1/92 66/1/92 
f 56/1/92 66/1/92 90/1/92 
f 70/1/93 89/1/93 93/1/93 
f 93/1/94 92/1/94 70/1/94 
f 89/1/95 57/1/95 91/1/95 
f 89/1/96 91/1/96 69/1/96 
f 89/1/96 69/1/96 68/1/96 
f 89/1/96 68/1/96 93/1/96 
f 65/5/97 61/5/97 94/5/97 
f 94/5/98 95/5/98 65/5/98 
f 61/5/99 38/5/99 96/5/99 
f 61/5/100 96/5/100 73/5/100 
f 61/5/100 73/5/100 76/5/100 
f 61/5/100 76/5/100 94/5/100 
f 38/5/101 37/5/101 97/5/101 
f 97/5/102 96/5/102 38/5/102 
f 37/5/103 65/5/103 95/5/103 
f 37/5/104 95/5/104 75/5/104 
f 37/5/104 75/5/104 74/5/104 
f 37/5/104 74/5/104 97/5/104 
f 53/5/6 52/8/6 98/8/6 
f 98/8/6 99/5/6 53/5/6 
f 52/8/6 48/2/6 100/2/6 
f 100/2/6 98/8/6 52/8/6 
f 48/2/6 53/5/6 99/5/6 
f 99/5/6 100/2/6 48/2/6 
f 49/1/6 48/2/6 101/2/6 
f 101/2/6 102/1/6 49/1/6 
f 48/2/6 46/7/6 103/7/6 
f 103/7/6 101/2/6 48/2/6 
f 46/7/6 49/1/6 102/1/6 
f 102/1/6 103/7/6 46/7/6 
f 47/4/6 46/7/6 104/7/6 
f 104/7/6 105/4/6 47/4/6 
f 46/7/6 42/3/6 106/3/6 
f 106/3/6 104/7/6 46/7/6 
f 42/3/6 47/4/6 105/4/6 
f 105/4/6 106/3/6 42/3/6 
f 43/6/6 42/3/6 107/3/6 
f 107/3/6 108/6/6 43/6/6 
f 42/3/6 52/8/6 109/8/6 
f 109/8/6 107/3/6 42/3/6 
f 52/8/6 43/6/6 108/6/6 
f 108/6/6 109/8/6 52/8/6 
f 99/5/105 98/8/105 110/8/105 
f 110/8/105 111/5/105 99/5/105 
f 98/8/106 100/2/106 112/2/106 
f 112/2/106 110/8/106 98/8/106 
f 100/2/107 99/5/107 111/5/107 
f 111/5/108 112/2/108 100/2/108 
f 102/1/109 101/2/109 113/2/109 
f 113/2/109 114/1/109 102/1/109 
f 101/2/110 103/7/110 115/7/110 
f 115/7/110 113/2/110 101/2/110 
f 103/7/111 102/1/111 114/1/111 
f 114/1/111 115/7/111 103/7/111 
f 105/4/112 104/7/112 116/7/112 
f 116/7/112 117/4/112 105/4/112 
f 104/7/113 106/3/113 118/3/113 
f 118/3/113 116/7/113 104/7/113 
f 106/3/114 105/4/114 117/4/114 
f 117/4/114 118/3/114 106/3/114 
f 108/6/115 107/3/115 119/3/115 
f 119/3/115 120/6/115 108/6/115 
f 107/3/116 109/8/116 121/8/116 
f 121/8/116 119/3/116 107/3/116 
f 109/8/117 108/6/117 120/6/117 
f 120/6/117 121/8/117 109/8/117 
f 111/5/6 110/8/6 122/8/6 
f 122/8/6 123/5/6 111/5/6 
f 110/8/6 112/2/6 124/2/6 
f 124/2/6 122/8/6 110/8/6 
f 112/2/6 111/5/6 123/5/6 
f 123/5/6 124/2/6 112/2/6 
f 114/1/6 113/2/6 125/2/6 
f 125/2/6 126/1/6 114/1/6 
f 113/2/6 115/7/6 127/7/6 
f 127/7/6 125/2/6 113/2/6 
f 115/7/6 114/1/6 126/1/6 
f 126/1/6 127/7/6 115/7/6 
f 117/4/6 116/7/6 128/7/6 
f 128/7/6 129/4/6 117/4/6 
f 116/7/6 118/3/6 130/3/6 
f 130/3/6 128/7/6 116/7/6 
f 118/3/6 117/4/6 129/4/6 
f 129/4/6 130/3/6 118/3/6 
f 120/6/6 119/3/6 131/3/6 
f 131/3/6 132/6/6 120/6/6 
f 119/3/6 121/8/6 133/8/6 
f 133/8/6 131/3/6 119/3/6 
f 121/8/6 120/6/6 132/6/6 
f 132/6/6 133/8/6 121/8/6 
f 123/5/112 122/8/112 79/8/112 
f 79/8/112 78/5/112 123/5/112 
f 122/8/118 124/2/118 77/2/118 
f 77/2/118 79/8/118 122/8/118 
f 124/2/114 123/5/114 78/5/114 
f 78/5/114 77/2/114 124/2/114 
f 126/1/115 125/2/115 82/2/115 
f 82/2/115 81/1/115 126/1/115 
f 125/2/116 127/7/116 80/7/116 
f 80/7/116 82/2/116 125/2/116 
f 127/7/117 126/1/117 81/1/117 
f 81/1/117 80/7/117 127/7/117 
f 129/4/105 128/7/105 85/7/105 
f 85/7/105 84/4/105 129/4/105 
f 128/7/106 130/3/106 83/3/106 
f 83/3/106 85/7/106 128/7/106 
f 130/3/108 129/4/108 84/4/108 
f 84/4/108 83/3/108 130/3/108 
f 132/6/109 131/3/109 88/3/109 
f 88/3/109 87/6/109 132/6/109 
f 131/3/110 133/8/110 86/8/110 
f 86/8/110 88/3/110 131/3/110 
f 133/8/111 132/6/111 87/6/111 
f 87/6/111 86/8/111 133/8/111 
f 134/1/119 135/1/119 136/1/119 
f 136/1/120 137/1/120 134/1/120 
f 138/1/121 139/1/121 140/1/121 
f 140/1/122 141/1/122 138/1/122 
f 142/5/123 143/5/123 144/5/123 
f 144/5/124 145/5/124 142/5/124 
f 146/5/125 147/5/125 148/5/125 
f 148/5/126 149/5/126 146/5/126 
f 92/1/127 93/1/127 150/1/127 
f 150/1/128 151/1/128 92/1/128 
f 93/1/129 68/1/129 152/1/129 
f 152/1/130 150/1/130 93/1/130 
f 68/1/131 67/1/131 153/1/131 
f 153/1/132 152/1/132 68/1/132 
f 67/1/133 92/1/133 151/1/133 
f 151/1/134 153/1/134 67/1/134 
f 91/1/135 90/1/135 154/1/135 
f 154/1/136 155/1/136 91/1/136 
f 90/1/137 66/1/137 156/1/137 
f 156/1/138 154/1/138 90/1/138 
f 66/1/139 69/1/139 157/1/139 
f 157/1/140 156/1/140 66/1/140 
f 69/1/141 91/1/141 155/1/141 
f 155/1/142 157/1/142 69/1/142 
f 96/5/143 97/5/143 158/5/143 
f 158/5/144 159/5/144 96/5/144 
f 97/5/145 74/5/145 160/5/145 
f 160/5/146 158/5/146 97/5/146 
f 74/5/147 73/5/147 161/5/147 
f 161/5/148 160/5/148 74/5/148 
f 73/5/149 96/5/149 159/5/149 
f 159/5/150 161/5/150 73/5/150 
f 95/5/151 94/5/151 162/5/151 
f 162/5/152 163/5/152 95/5/152 
f 94/5/153 76/5/153 164/5/153 
f 164/5/154 162/5/154 94/5/154 
f 76/5/155 75/5/155 165/5/155 
f 165/5/156 164/5/156 76/5/156 
f 75/5/157 95/5/157 163/5/157 
f 163/5/158 165/5/158 75/5/158 
f 151/1/159 150/1/159 136/1/159 
f 136/1/160 135/1/160 151/1/160 
f 150/1/161 152/1/161 137/1/161 
f 137/1/162 136/1/162 150/1/162 
f 152/1/163 153/1/163 134/1/163 
f 134/1/164 137/1/164 152/1/164 
f 153/1/165 151/1/165 135/1/165 
f 135/1/166 134/1/166 153/1/166 
f 155/1/167 154/1/167 140/1/167 
f 140/1/168 139/1/168 155/1/168 
f 154/1/169 156/1/169 141/1/169 
f 141/1/170 140/1/170 154/1/170 
f 156/1/171 157/1/171 138/1/171 
f 138/1/172 141/1/172 156/1/172 
f 157/1/173 155/1/173 139/1/173 
f 139/1/174 138/1/174 157/1/174 
f 159/5/175 158/5/175 143/5/175 
f 143/5/176 142/5/176 159/5/176 
f 158/5/177 160/5/177 144/5/177 
f 144/5/178 143/5/178 158/5/178 
f 160/5/179 161/5/179 145/5/179 
f 145/5/180 144/5/180 160/5/180 
f 161/5/181 159/5/181 142/5/181 
f 142/5/182 145/5/182 161/5/182 
f 163/5/183 162/5/183 147/5/183 
f 147/5/184 146/5/184 163/5/184 
f 162/5/185 164/5/185 148/5/185 
f 148/5/186 147/5/186 162/5/186 
f 164/5/187 165/5/187 149/5/187 
f 149/5/188 148/5/188 164/5/188 
f 165/5/189 163/5/189 146/5/189 
f 146/5/190 149/5/190 165/5/190 
# 326 faces

