# 3ds Max Wavefront OBJ Exporter v0.97b - (c)2007 guruware
# File Created: 04.05.2016 19:22:20

mtllib kamikazeShip.mtl

#
# object Box002
#

v  0.4131 -0.4097 0.4190
v  0.0007 -0.6036 0.4190
v  0.0007 -0.6036 -1.2305
v  0.4131 -0.4097 -1.2305
v  0.4131 0.4151 -1.2305
v  0.0007 0.2056 0.4190
v  0.4131 0.4151 0.4190
v  0.1686 -0.4703 -7.0694
v  0.1686 -0.2001 -7.0694
v  0.1769 -0.2001 -7.0694
v  0.4747 -0.3950 -7.0694
v  -0.4116 -0.4097 0.4190
v  -0.6056 0.0027 0.4190
v  -0.6056 0.0027 -1.2305
v  -0.4116 -0.4097 -1.2305
v  0.6071 0.0027 -1.2305
v  0.6071 0.0027 0.4190
v  -0.4994 0.4225 -7.0694
v  -0.1722 0.5600 -7.0694
v  -0.1722 0.2224 -7.0694
v  -0.1810 0.2224 -7.0694
v  -0.4116 0.4151 0.4190
v  -0.4116 0.4151 -1.2305
v  0.0007 0.7408 -1.2305
v  -0.4732 -0.3950 -7.0694
v  -0.1755 -0.2001 -7.0694
v  -0.1671 -0.2001 -7.0694
v  -0.1671 -0.4703 -7.0694
v  0.5009 0.4225 -7.0694
v  0.1825 0.2224 -7.0694
v  0.1736 0.2224 -7.0694
v  0.1736 0.5600 -7.0694
v  0.1962 -0.0881 1.5386
v  0.0007 -0.1308 1.5386
v  0.2882 0.0027 1.5386
v  0.1962 0.0936 1.5386
v  0.0007 0.1363 1.5386
v  -0.1948 0.0936 1.5386
v  -0.2867 0.0027 1.5386
v  -0.1948 -0.0881 1.5386
v  0.0007 -0.0497 1.5386
v  0.0775 -0.0329 1.5386
v  0.0775 -0.0329 1.2829
v  0.0007 -0.0497 1.2829
v  0.1136 0.0027 1.5360
v  0.1136 0.0027 1.2804
v  0.0775 0.0384 1.5386
v  0.0775 0.0384 1.2829
v  0.0007 0.0552 1.5386
v  0.0007 0.0552 1.2829
v  -0.0760 0.0384 1.5386
v  -0.0760 0.0384 1.2829
v  -0.1121 0.0027 1.5386
v  -0.1121 0.0027 1.2829
v  -0.0760 -0.0329 1.5386
v  -0.0760 -0.0329 1.2829
v  0.0570 -0.0780 1.8342
v  0.2037 -0.0187 1.8345
v  0.1611 0.0089 1.8335
v  0.1254 0.0242 1.8323
v  0.0570 0.0834 1.8342
v  -0.0555 0.0834 1.8342
v  -0.1652 0.0365 1.8342
v  -0.1652 -0.0311 1.8342
v  -0.0584 -0.0774 1.8342
v  0.0007 -1.0947 -1.9604
v  0.7471 -0.7436 -1.9604
v  -0.7456 -0.7436 -1.9604
v  -1.0967 0.0027 -1.9604
v  -0.7692 0.5285 -1.9604
v  0.0007 1.3071 -1.9604
v  0.7706 0.5285 -1.9604
v  1.0982 0.0027 -1.9604
v  0.0007 -1.4903 -2.8636
v  1.0161 -1.0127 -2.8636
v  -1.0146 -1.0127 -2.8636
v  -1.9850 -0.8113 -1.9681
v  -2.2866 -0.5432 -1.9680
v  -2.6228 -0.5432 -2.8758
v  -2.2139 -0.9071 -2.8761
v  -2.4081 0.6530 -1.9718
v  -2.1302 0.9002 -1.9719
v  -2.3745 0.9813 -2.8773
v  -2.7436 0.6530 -2.8774
v  0.0007 1.7633 -2.8636
v  -1.0572 0.7571 -2.8636
v  1.0587 0.7571 -2.8636
v  2.1316 0.9002 -1.9719
v  2.4096 0.6530 -1.9718
v  2.7451 0.6530 -2.8774
v  2.3760 0.9813 -2.8773
v  2.2880 -0.5432 -1.9680
v  1.9865 -0.8113 -1.9681
v  2.2154 -0.9071 -2.8761
v  2.6243 -0.5432 -2.8758
v  0.0007 -1.5260 -3.8945
v  1.0404 -1.0369 -3.8945
v  -1.0389 -1.0369 -3.8945
v  -2.6531 -0.5432 -3.9073
v  -2.2344 -0.9157 -3.9070
v  -2.3965 0.9886 -3.9084
v  -2.7738 0.6530 -3.9083
v  0.0007 1.8044 -3.8945
v  -1.0832 0.7778 -3.8945
v  1.0847 0.7778 -3.8945
v  2.7753 0.6530 -3.9083
v  2.3980 0.9886 -3.9084
v  2.2359 -0.9157 -3.9070
v  2.6545 -0.5432 -3.9073
v  0.0007 -1.0513 -4.9872
v  0.7176 -0.7141 -4.9872
v  -0.7161 -0.7141 -4.9872
v  -2.2499 -0.5432 -5.0048
v  -1.9601 -0.8009 -5.0047
v  -2.1035 0.8913 -5.0035
v  -2.3714 0.6530 -5.0035
v  0.0007 1.2571 -4.9872
v  -0.7376 0.5034 -4.9872
v  0.7391 0.5034 -4.9872
v  2.3729 0.6530 -5.0035
v  2.1049 0.8913 -5.0035
v  1.9615 -0.8009 -5.0047
v  2.2513 -0.5432 -5.0048
v  0.0007 -0.3806 -5.6884
v  0.2614 -0.2580 -5.6884
v  -0.2599 -0.2580 -5.6884
v  -1.0533 0.0027 -4.9872
v  -0.3826 0.0027 -5.6884
v  -0.2492 0.2862 -5.6884
v  0.0007 0.4836 -5.6884
v  0.2507 0.2862 -5.6884
v  1.0548 0.0027 -4.9872
v  0.3840 0.0027 -5.6884
v  0.0007 -0.7343 -6.3978
v  0.9203 -0.5081 -6.3978
v  -0.9189 -0.5081 -6.3978
v  -0.1385 0.0027 -6.3978
v  -0.9304 0.5002 -6.3978
v  0.0007 0.8915 -6.3978
v  0.9318 0.5002 -6.3978
v  0.1400 0.0027 -6.3978
v  0.1686 -0.4703 -6.3978
v  0.4747 -0.3950 -6.3978
v  0.0007 0.0027 -6.3978
v  0.1686 -0.2001 -6.3978
v  0.1769 -0.2001 -6.3978
v  -0.4994 0.4225 -6.3978
v  -0.1810 0.2224 -6.3978
v  -0.1722 0.5600 -6.3978
v  -0.1722 0.2224 -6.3978
v  -0.4732 -0.3950 -6.3978
v  -0.1671 -0.4703 -6.3978
v  -0.1755 -0.2001 -6.3978
v  -0.1671 -0.2001 -6.3978
v  0.5009 0.4225 -6.3978
v  0.1736 0.5600 -6.3978
v  0.1825 0.2224 -6.3978
v  0.1736 0.2224 -6.3978
v  -1.8141 -0.0149 -1.9660
v  -1.5162 -0.2798 -1.9661
v  -1.5361 0.2322 -1.9661
v  -1.7804 0.3134 -2.8716
v  -1.8024 0.3207 -3.9026
v  -1.5094 0.2233 -4.9977
v  -1.7774 -0.0149 -4.9978
v  -1.4912 -0.2694 -4.9977
v  -1.7649 -0.3839 -3.9027
v  -1.7444 -0.3753 -2.8715
v  1.8155 -0.0149 -1.9660
v  1.5376 0.2322 -1.9661
v  1.5176 -0.2798 -1.9661
v  1.7459 -0.3753 -2.8715
v  1.7664 -0.3839 -3.9027
v  1.4927 -0.2694 -4.9977
v  1.7788 -0.0149 -4.9978
v  1.5108 0.2233 -4.9977
v  1.8039 0.3207 -3.9026
v  1.7819 0.3134 -2.8716
v  -2.1496 -0.0149 -2.8717
v  -2.1798 -0.0149 -3.9025
v  2.1510 -0.0149 -2.8717
v  2.1812 -0.0149 -3.9025
# 182 vertices

vn 0.4257 -0.9049 -0.0000
vn -0.0000 -1.0000 0.0000
vn 0.4733 0.8513 0.2264
vn 0.0000 0.9985 0.0542
vn -0.4529 0.8915 0.0000
vn -0.0000 0.0000 -1.0000
vn -0.9049 -0.4257 0.0000
vn -1.0000 -0.0000 0.0000
vn 0.9049 -0.4257 -0.0000
vn 1.0000 -0.0000 -0.0000
vn -0.9049 0.4257 0.0000
vn 0.9049 0.4257 -0.0000
vn -0.4257 -0.9049 0.0000
vn 0.0000 0.9512 0.3086
vn -0.4733 0.8513 0.2264
vn 0.4027 -0.8561 0.3239
vn 0.1974 -0.9031 0.3814
vn 0.8762 -0.4122 0.2496
vn 0.6652 -0.6735 0.3223
vn 0.8673 0.4080 0.2852
vn 0.6890 0.6977 0.1963
vn -0.4522 0.8902 0.0551
vn 0.2033 0.9299 0.3065
vn 0.4466 0.8792 0.1660
vn -0.2131 0.9752 0.0604
vn -0.8762 0.4122 0.2496
vn -0.6652 0.6735 0.3223
vn -0.8673 -0.4080 0.2852
vn -0.6890 -0.6977 0.1963
vn -0.3976 -0.8453 0.3570
vn -0.2033 -0.9299 0.3065
vn -0.2135 0.9769 0.0000
vn -0.7027 0.7115 0.0000
vn -0.7027 -0.7115 0.0000
vn -0.2135 -0.9769 0.0000
vn 0.2135 -0.9769 -0.0000
vn 0.7027 -0.7115 -0.0000
vn 0.7027 0.7115 -0.0000
vn 0.2135 0.9769 -0.0000
vn 0.2116 -0.9683 0.1329
vn 0.4156 0.8944 0.1652
vn -0.2116 0.9683 0.1329
vn -0.9824 0.0000 0.1869
vn 0.6950 -0.7037 0.1473
vn -0.5363 -0.8186 0.2055
vn 0.0003 0.9998 -0.0209
vn 0.5288 0.8222 0.2106
vn -0.6960 0.7115 0.0964
vn -0.4090 -0.8802 0.2409
vn 0.6753 0.6837 0.2766
vn -0.4124 0.8875 0.2056
vn -0.6976 -0.7120 0.0794
vn 0.3940 0.9189 -0.0199
vn -0.0003 -0.9998 0.0209
vn -0.3944 -0.9153 0.0821
vn 0.2116 0.9683 0.1329
vn -0.9824 -0.0000 0.1869
vn -0.2116 -0.9683 0.1329
vn 0.4156 -0.8944 0.1652
vn -0.4156 -0.8944 0.1652
vn 0.9824 0.0000 0.1869
vn -0.6880 0.6966 0.2032
vn 0.0000 -0.9935 0.1136
vn 0.6880 -0.6966 0.2032
vn 0.4177 0.8990 0.1317
vn -0.6880 -0.6966 0.2032
vn 0.4177 -0.8990 0.1317
vn 0.6880 0.6966 0.2032
vn 0.0000 0.9935 0.1136
vn 0.9806 -0.0000 0.1961
vn -0.4160 0.8953 0.1593
vn 0.4529 0.8915 -0.0000
vn 0.3636 -0.7729 0.5200
vn -0.3636 -0.7729 0.5200
vn -0.7729 -0.3636 0.5200
vn -0.8063 0.3793 0.4539
vn -0.7371 0.4592 0.4959
vn -0.5295 0.6703 0.5200
vn -0.6466 0.6394 0.4160
vn 0.5704 0.7221 0.3915
vn 0.6242 0.6173 0.4788
vn 0.7729 0.3636 0.5200
vn 0.7598 0.4733 0.4457
vn 0.7729 -0.3636 0.5200
vn 0.3957 -0.8412 0.3685
vn -0.3957 -0.8412 0.3685
vn -0.6452 -0.7257 0.2390
vn -0.6454 -0.7255 0.2392
vn -0.6452 0.7257 0.2392
vn -0.6454 0.7255 0.2391
vn -0.6701 0.6626 0.3347
vn -0.6391 0.6720 0.3740
vn 0.6591 0.6518 0.3752
vn 0.6472 0.6805 0.3437
vn 0.6452 0.7257 0.2390
vn 0.6454 0.7255 0.2392
vn 0.6452 -0.7256 0.2392
vn 0.6454 -0.7255 0.2391
vn 0.4255 -0.9044 0.0313
vn -0.4255 -0.9044 0.0313
vn -0.6646 -0.7469 0.0195
vn -0.6645 0.7470 0.0195
vn -0.6889 0.7243 0.0289
vn -0.6873 0.7257 0.0318
vn 0.6888 0.7243 0.0318
vn 0.6874 0.7257 0.0290
vn 0.6645 0.7470 0.0195
vn 0.6646 -0.7469 0.0195
vn 0.3962 -0.8422 -0.3658
vn -0.3962 -0.8422 -0.3658
vn -0.6457 -0.7258 -0.2372
vn -0.6455 -0.7260 -0.2373
vn -0.6457 0.7258 -0.2373
vn -0.6455 0.7260 -0.2371
vn -0.6463 0.6823 -0.3418
vn -0.6629 0.6494 -0.3727
vn 0.6385 0.6742 -0.3712
vn 0.6741 0.6604 -0.3308
vn 0.6457 0.7258 -0.2372
vn 0.6455 0.7260 -0.2373
vn 0.6457 -0.7258 -0.2373
vn 0.6455 -0.7260 -0.2371
vn 0.3219 -0.6842 -0.6545
vn -0.3219 -0.6842 -0.6545
vn -0.6842 -0.3219 -0.6545
vn -0.6753 0.4258 -0.6022
vn -0.6842 0.3219 -0.6545
vn -0.5655 0.5540 -0.6111
vn -0.5138 0.6505 -0.5594
vn 0.5813 0.5694 -0.5813
vn 0.4687 0.5933 -0.6545
vn 0.6576 0.4146 -0.6290
vn 0.7197 0.3386 -0.6062
vn 0.6842 -0.3219 -0.6545
vn 0.3880 -0.8248 0.4113
vn 0.2080 -0.8457 0.4915
vn -0.3464 -0.7363 0.5813
vn -0.2150 -0.8740 0.4358
vn -0.8640 -0.4064 -0.2973
vn -0.5356 0.8182 0.2090
vn -0.6407 0.3014 0.7062
vn -0.5233 -0.8329 -0.1800
vn -0.5650 0.7153 0.4113
vn -0.3248 0.7729 0.5451
vn 0.4765 0.6032 0.6396
vn 0.3423 0.8145 0.4684
vn 0.8640 0.4064 -0.2973
vn 0.5154 -0.8205 0.2474
vn 0.6428 -0.3024 0.7038
vn 0.5382 0.8222 -0.1852
vn 0.2389 -0.9710 -0.0000
vn 0.0000 1.0000 -0.0000
vn 0.5477 0.8367 -0.0000
vn -0.5320 -0.8468 0.0000
vn -0.3875 0.9219 0.0000
vn 1.0000 0.0000 -0.0000
vn 0.0000 -1.0000 -0.0000
vn -0.2389 -0.9710 0.0000
vn -0.5477 0.8367 0.0000
vn 0.3875 0.9219 -0.0000
vn 0.5320 -0.8468 -0.0000
vn -1.0000 0.0000 0.0000
vn -0.0077 -0.0036 1.0000
vn -0.0232 -0.0263 0.9994
vn -0.0097 0.0061 0.9999
vn -0.0080 0.0093 0.9999
vn -0.4912 0.7942 0.3577
vn -0.3557 0.9174 0.1783
vn -0.5364 0.8434 0.0304
vn -0.5230 0.8521 0.0172
vn -0.3188 0.8906 -0.3244
vn -0.5223 0.8257 -0.2132
vn 0.0148 -0.0093 -0.9998
vn 0.0228 -0.0254 -0.9994
vn 0.0185 0.0087 -0.9998
vn 0.0142 0.0157 -0.9998
vn -0.6148 -0.6884 -0.3850
vn -0.4844 -0.8493 -0.2099
vn -0.6576 -0.7526 0.0332
vn -0.6687 -0.7433 0.0195
vn -0.4793 -0.7918 0.3786
vn -0.6403 -0.7302 0.2384
vn 0.0079 0.0049 1.0000
vn 0.0132 0.0151 0.9998
vn 0.0102 -0.0048 0.9999
vn 0.0076 -0.0088 0.9999
vn 0.6088 -0.6922 0.3876
vn 0.5047 -0.8360 0.2154
vn 0.6686 -0.7429 0.0332
vn 0.6578 -0.7529 0.0194
vn 0.4578 -0.8067 -0.3736
vn 0.6481 -0.7235 -0.2377
vn -0.0144 0.0068 -0.9999
vn -0.0377 0.0422 -0.9984
vn -0.0176 -0.0111 -0.9998
vn -0.0150 -0.0166 -0.9998
vn 0.4983 0.7905 -0.3561
vn 0.3340 0.9268 -0.1718
vn 0.5230 0.8518 0.0302
vn 0.5364 0.8438 0.0174
vn 0.3421 0.8792 0.3317
vn 0.5127 0.8317 0.2129
vn -0.7212 -0.6391 0.2672
vn -0.0042 0.0049 1.0000
vn 0.7404 0.6573 -0.1409
vn 0.7472 0.6645 -0.0112
vn 0.7393 0.6588 0.1393
vn 0.0044 -0.0047 -1.0000
vn -0.7195 -0.6422 -0.2643
vn -0.7471 -0.6643 0.0219
vn 0.7212 -0.6391 0.2672
vn 0.7471 -0.6643 0.0219
vn 0.7195 -0.6422 -0.2643
vn -0.0044 -0.0047 -1.0000
vn -0.7393 0.6588 0.1393
vn -0.7472 0.6645 -0.0112
vn -0.7404 0.6573 -0.1409
vn 0.0042 0.0049 1.0000
vn -0.7189 0.6420 0.2663
vn -0.7447 0.6670 0.0218
vn -0.7173 0.6451 -0.2635
vn 0.0067 0.0073 -1.0000
vn 0.7440 -0.6578 0.1172
vn 0.7496 -0.6618 -0.0094
vn 0.7449 -0.6566 -0.1185
vn -0.0017 -0.0022 1.0000
vn 0.7189 0.6420 0.2663
vn 0.0017 -0.0022 1.0000
vn -0.7449 -0.6566 -0.1185
vn -0.7496 -0.6618 -0.0094
vn -0.7440 -0.6578 0.1172
vn -0.0067 0.0073 -1.0000
vn 0.7173 0.6451 -0.2635
vn 0.7447 0.6670 0.0218
# 234 vertex normals

vt 1.0000 1.0000 0.0000
vt 0.5000 1.0000 0.0000
vt 0.5000 0.0000 0.0000
vt 1.0000 0.0000 0.0000
vt 0.0000 0.0000 0.0000
vt 0.0000 1.0000 0.0000
vt 0.5000 0.5000 0.0000
vt 0.0000 0.5000 0.0000
vt 1.0000 0.5000 0.0000
vt 0.7500 0.0000 0.0000
vt 1.0000 0.8333 0.0000
vt 0.7500 1.0000 0.0000
vt 0.2500 1.0000 0.0000
vt 0.0000 0.7500 0.0000
vt 0.0000 0.2500 0.0000
vt 0.2500 0.0000 0.0000
# 16 texture coords

g Box002
usemtl 02___Default
s 2
f 1/1/1 2/2/2 3/3/2 
f 3/3/2 4/4/1 1/1/1 
s 4
f 5/5/3 6/2/4 7/6/5 
s 8
f 8/3/6 9/7/6 10/8/6 
f 10/8/6 11/5/6 8/3/6 
s 16
f 12/4/7 13/9/8 14/8/8 
f 14/8/8 15/5/7 12/4/7 
s 64
f 4/4/9 16/9/10 17/8/10 
f 17/8/10 1/5/9 4/4/9 
s 8
f 18/1/6 19/2/6 20/7/6 
f 20/7/6 21/9/6 18/1/6 
s 16
f 22/1/11 23/6/11 14/8/8 
f 14/8/8 13/9/8 22/1/11 
s 64
f 5/1/12 7/6/12 17/8/10 
f 17/8/10 16/9/10 5/1/12 
s 2
f 12/6/13 15/5/13 3/3/2 
f 3/3/2 2/2/2 12/6/13 
usemtl 01___Default
s 4
f 24/3/14 23/4/15 6/2/4 
usemtl 02___Default
s 8
f 25/4/6 26/9/6 27/7/6 
f 27/7/6 28/3/6 25/4/6 
f 29/6/6 30/8/6 31/7/6 
f 31/7/6 32/2/6 29/6/6 
s off
f 2/3/16 1/4/16 33/4/16 
f 33/4/17 34/3/17 2/3/17 
f 1/4/18 17/9/18 35/9/18 
f 35/9/19 33/4/19 1/4/19 
f 17/9/20 7/1/20 36/1/20 
f 36/1/21 35/9/21 17/9/21 
f 7/1/22 6/2/22 37/2/22 
f 37/2/23 36/1/23 7/1/23 
f 6/2/24 22/6/24 38/6/24 
f 38/6/25 37/2/25 6/2/25 
f 22/6/26 13/8/26 39/8/26 
f 39/8/27 38/6/27 22/6/27 
f 13/8/28 12/5/28 40/5/28 
f 40/5/29 39/8/29 13/8/29 
f 12/5/30 2/3/30 34/3/30 
f 34/3/31 40/5/31 12/5/31 
f 41/3/32 42/4/32 43/4/32 
f 43/4/32 44/3/32 41/3/32 
f 42/4/33 45/9/33 46/9/33 
f 46/9/33 43/4/33 42/4/33 
f 45/9/34 47/1/34 48/1/34 
f 48/1/34 46/9/34 45/9/34 
f 47/1/35 49/2/35 50/2/35 
f 50/2/35 48/1/35 47/1/35 
f 49/2/36 51/6/36 52/6/36 
f 52/6/36 50/2/36 49/2/36 
f 51/6/37 53/8/37 54/8/37 
f 54/8/37 52/6/37 51/6/37 
f 53/8/38 55/5/38 56/5/38 
f 56/5/38 54/8/38 53/8/38 
f 55/5/39 41/3/39 44/3/39 
f 44/3/39 56/5/39 55/5/39 
f 34/3/40 33/4/40 57/10/40 
f 33/4/41 42/4/41 57/10/41 
f 42/4/42 41/3/42 57/10/42 
f 41/3/43 34/3/43 57/10/43 
f 33/4/44 35/9/44 58/9/44 
f 58/9/45 59/4/45 33/4/45 
f 35/9/46 45/9/46 59/9/46 
f 59/9/47 58/9/47 35/9/47 
f 45/9/48 42/4/48 59/9/48 
f 42/4/49 33/4/49 59/4/49 
f 35/9/50 36/1/50 59/11/50 
f 36/1/51 47/1/51 59/11/51 
f 47/1/52 45/9/52 60/9/52 
f 60/9/53 59/11/53 47/1/53 
f 45/9/54 35/9/54 59/11/54 
f 59/11/55 60/9/55 45/9/55 
f 36/1/56 37/2/56 61/12/56 
f 37/2/57 49/2/57 61/12/57 
f 49/2/58 47/1/58 61/12/58 
f 47/1/59 36/1/59 61/12/59 
f 37/2/42 38/6/42 62/13/42 
f 38/6/60 51/6/60 62/13/60 
f 51/6/40 49/2/40 62/13/40 
f 49/2/61 37/2/61 62/13/61 
f 38/6/62 39/8/62 63/14/62 
f 39/8/63 53/8/63 63/14/63 
f 53/8/64 51/6/64 63/14/64 
f 51/6/65 38/6/65 63/14/65 
f 39/8/66 40/5/66 64/15/66 
f 40/5/67 55/5/67 64/15/67 
f 55/5/68 53/8/68 64/15/68 
f 53/8/69 39/8/69 64/15/69 
f 40/5/58 34/3/58 65/16/58 
f 34/3/70 41/3/70 65/16/70 
f 41/3/56 55/5/56 65/16/56 
f 55/5/71 40/5/71 65/16/71 
usemtl 01___Default
s 4
f 5/5/3 24/3/14 6/2/4 
usemtl 02___Default
f 23/4/15 22/1/72 6/2/4 
s off
f 4/5/73 3/3/73 66/3/73 
f 66/3/73 67/5/73 4/5/73 
f 3/3/74 15/4/74 68/4/74 
f 68/4/74 66/3/74 3/3/74 
f 15/4/75 14/9/75 69/9/75 
f 69/9/75 68/4/75 15/4/75 
f 14/9/76 23/1/76 70/1/76 
f 70/1/77 69/9/77 14/9/77 
f 23/1/78 24/2/78 71/2/78 
f 71/2/79 70/1/79 23/1/79 
f 24/2/80 5/6/80 72/6/80 
f 72/6/81 71/2/81 24/2/81 
f 5/6/82 16/8/82 73/8/82 
f 73/8/83 72/6/83 5/6/83 
f 16/8/84 4/5/84 67/5/84 
f 67/5/84 73/8/84 16/8/84 
f 67/5/85 66/3/85 74/3/85 
f 74/3/85 75/5/85 67/5/85 
f 66/3/86 68/4/86 76/4/86 
f 76/4/86 74/3/86 66/3/86 
f 77/4/87 78/9/87 79/9/87 
f 79/9/88 80/4/88 77/4/88 
f 81/9/89 82/1/89 83/1/89 
f 83/1/90 84/9/90 81/9/90 
f 70/1/91 71/2/91 85/2/91 
f 85/2/92 86/1/92 70/1/92 
f 71/2/93 72/6/93 87/6/93 
f 87/6/94 85/2/94 71/2/94 
f 88/6/95 89/8/95 90/8/95 
f 90/8/96 91/6/96 88/6/96 
f 92/8/97 93/5/97 94/5/97 
f 94/5/98 95/8/98 92/8/98 
f 75/5/99 74/3/99 96/3/99 
f 96/3/99 97/5/99 75/5/99 
f 74/3/100 76/4/100 98/4/100 
f 98/4/100 96/3/100 74/3/100 
f 80/4/101 79/9/101 99/9/101 
f 99/9/101 100/4/101 80/4/101 
f 84/9/102 83/1/102 101/1/102 
f 101/1/102 102/9/102 84/9/102 
f 86/1/103 85/2/103 103/2/103 
f 103/2/104 104/1/104 86/1/104 
f 85/2/105 87/6/105 105/6/105 
f 105/6/106 103/2/106 85/2/106 
f 91/6/107 90/8/107 106/8/107 
f 106/8/107 107/6/107 91/6/107 
f 95/8/108 94/5/108 108/5/108 
f 108/5/108 109/8/108 95/8/108 
f 97/5/109 96/3/109 110/3/109 
f 110/3/109 111/5/109 97/5/109 
f 96/3/110 98/4/110 112/4/110 
f 112/4/110 110/3/110 96/3/110 
f 100/4/111 99/9/111 113/9/111 
f 113/9/112 114/4/112 100/4/112 
f 102/9/113 101/1/113 115/1/113 
f 115/1/114 116/9/114 102/9/114 
f 104/1/115 103/2/115 117/2/115 
f 117/2/116 118/1/116 104/1/116 
f 103/2/117 105/6/117 119/6/117 
f 119/6/118 117/2/118 103/2/118 
f 107/6/119 106/8/119 120/8/119 
f 120/8/120 121/6/120 107/6/120 
f 109/8/121 108/5/121 122/5/121 
f 122/5/122 123/8/122 109/8/122 
f 111/5/123 110/3/123 124/3/123 
f 124/3/123 125/5/123 111/5/123 
f 110/3/124 112/4/124 126/4/124 
f 126/4/124 124/3/124 110/3/124 
f 112/4/125 127/9/125 128/9/125 
f 128/9/125 126/4/125 112/4/125 
f 127/9/126 118/1/126 129/1/126 
f 129/1/127 128/9/127 127/9/127 
f 118/1/128 117/2/128 130/2/128 
f 130/2/129 129/1/129 118/1/129 
f 117/2/130 119/6/130 131/6/130 
f 131/6/131 130/2/131 117/2/131 
f 119/6/132 132/8/132 133/8/132 
f 133/8/133 131/6/133 119/6/133 
f 132/8/134 111/5/134 125/5/134 
f 125/5/134 133/8/134 132/8/134 
f 125/5/135 124/3/135 134/3/135 
f 134/3/136 135/5/136 125/5/136 
f 124/3/137 126/4/137 136/4/137 
f 136/4/138 134/3/138 124/3/138 
f 126/4/139 128/9/139 137/9/139 
f 137/9/140 136/4/140 126/4/140 
f 128/9/141 129/1/141 138/1/141 
f 138/1/142 137/9/142 128/9/142 
f 129/1/143 130/2/143 139/2/143 
f 139/2/144 138/1/144 129/1/144 
f 130/2/145 131/6/145 140/6/145 
f 140/6/146 139/2/146 130/2/146 
f 131/6/147 133/8/147 141/8/147 
f 141/8/148 140/6/148 131/6/148 
f 133/8/149 125/5/149 135/5/149 
f 135/5/150 141/8/150 133/8/150 
f 135/5/6 134/3/6 142/3/6 
f 142/3/6 143/5/6 135/5/6 
f 134/3/6 144/7/6 145/7/6 
f 145/7/6 142/3/6 134/3/6 
f 144/7/6 141/8/6 146/8/6 
f 146/8/6 145/7/6 144/7/6 
f 141/8/6 135/5/6 143/5/6 
f 143/5/6 146/8/6 141/8/6 
f 137/9/6 138/1/6 147/1/6 
f 147/1/6 148/9/6 137/9/6 
f 138/1/6 139/2/6 149/2/6 
f 149/2/6 147/1/6 138/1/6 
f 139/2/6 144/7/6 150/7/6 
f 150/7/6 149/2/6 139/2/6 
f 144/7/6 137/9/6 148/9/6 
f 148/9/6 150/7/6 144/7/6 
f 134/3/6 136/4/6 151/4/6 
f 151/4/6 152/3/6 134/3/6 
f 136/4/6 137/9/6 153/9/6 
f 153/9/6 151/4/6 136/4/6 
f 137/9/6 144/7/6 154/7/6 
f 154/7/6 153/9/6 137/9/6 
f 144/7/6 134/3/6 152/3/6 
f 152/3/6 154/7/6 144/7/6 
f 139/2/6 140/6/6 155/6/6 
f 155/6/6 156/2/6 139/2/6 
f 140/6/6 141/8/6 157/8/6 
f 157/8/6 155/6/6 140/6/6 
f 141/8/6 144/7/6 158/7/6 
f 158/7/6 157/8/6 141/8/6 
f 144/7/6 139/2/6 156/2/6 
f 156/2/6 158/7/6 144/7/6 
f 143/5/151 142/3/151 8/3/151 
f 8/3/151 11/5/151 143/5/151 
f 142/3/8 145/7/8 9/7/8 
f 9/7/8 8/3/8 142/3/8 
f 145/7/152 146/8/152 10/8/152 
f 10/8/152 9/7/152 145/7/152 
f 146/8/153 143/5/153 11/5/153 
f 11/5/153 10/8/153 146/8/153 
f 148/9/154 147/1/154 18/1/154 
f 18/1/154 21/9/154 148/9/154 
f 147/1/155 149/2/155 19/2/155 
f 19/2/155 18/1/155 147/1/155 
f 149/2/156 150/7/156 20/7/156 
f 20/7/156 19/2/156 149/2/156 
f 150/7/157 148/9/157 21/9/157 
f 21/9/157 20/7/157 150/7/157 
f 152/3/158 151/4/158 25/4/158 
f 25/4/158 28/3/158 152/3/158 
f 151/4/159 153/9/159 26/9/159 
f 26/9/159 25/4/159 151/4/159 
f 153/9/152 154/7/152 27/7/152 
f 27/7/152 26/9/152 153/9/152 
f 154/7/156 152/3/156 28/3/156 
f 28/3/156 27/7/156 154/7/156 
f 156/2/160 155/6/160 29/6/160 
f 29/6/160 32/2/160 156/2/160 
f 155/6/161 157/8/161 30/8/161 
f 30/8/161 29/6/161 155/6/161 
f 157/8/157 158/7/157 31/7/157 
f 31/7/157 30/8/157 157/8/157 
f 158/7/162 156/2/162 32/2/162 
f 32/2/162 31/7/162 158/7/162 
f 68/4/163 69/9/163 159/9/163 
f 159/9/164 160/4/164 68/4/164 
f 69/9/165 70/1/165 161/1/165 
f 161/1/166 159/9/166 69/9/166 
f 70/1/167 86/1/167 162/1/167 
f 162/1/168 161/1/168 70/1/168 
f 86/1/169 104/1/169 163/1/169 
f 163/1/170 162/1/170 86/1/170 
f 104/1/171 118/1/171 164/1/171 
f 164/1/172 163/1/172 104/1/172 
f 118/1/173 127/9/173 165/9/173 
f 165/9/174 164/1/174 118/1/174 
f 127/9/175 112/4/175 166/4/175 
f 166/4/176 165/9/176 127/9/176 
f 112/4/177 98/4/177 167/4/177 
f 167/4/178 166/4/178 112/4/178 
f 98/4/179 76/4/179 168/4/179 
f 168/4/180 167/4/180 98/4/180 
f 76/4/181 68/4/181 160/4/181 
f 160/4/182 168/4/182 76/4/182 
f 72/6/183 73/8/183 169/8/183 
f 169/8/184 170/6/184 72/6/184 
f 73/8/185 67/5/185 171/5/185 
f 171/5/186 169/8/186 73/8/186 
f 67/5/187 75/5/187 172/5/187 
f 172/5/188 171/5/188 67/5/188 
f 75/5/189 97/5/189 173/5/189 
f 173/5/190 172/5/190 75/5/190 
f 97/5/191 111/5/191 174/5/191 
f 174/5/192 173/5/192 97/5/192 
f 111/5/193 132/8/193 175/8/193 
f 175/8/194 174/5/194 111/5/194 
f 132/8/195 119/6/195 176/6/195 
f 176/6/196 175/8/196 132/8/196 
f 119/6/197 105/6/197 177/6/197 
f 177/6/198 176/6/198 119/6/198 
f 105/6/199 87/6/199 178/6/199 
f 178/6/200 177/6/200 105/6/200 
f 87/6/201 72/6/201 170/6/201 
f 170/6/202 178/6/202 87/6/202 
f 179/9/203 159/9/203 81/9/203 
f 81/9/203 84/9/203 179/9/203 
f 159/9/204 161/1/204 82/1/204 
f 82/1/204 81/9/204 159/9/204 
f 161/1/205 162/1/205 83/1/205 
f 83/1/205 82/1/205 161/1/205 
f 162/1/206 163/1/206 101/1/206 
f 101/1/206 83/1/206 162/1/206 
f 163/1/207 164/1/207 115/1/207 
f 115/1/207 101/1/207 163/1/207 
f 164/1/208 165/9/208 116/9/208 
f 116/9/208 115/1/208 164/1/208 
f 165/9/209 180/9/209 102/9/209 
f 102/9/209 116/9/209 165/9/209 
f 180/9/210 179/9/210 84/9/210 
f 84/9/210 102/9/210 180/9/210 
f 169/8/211 181/8/211 90/8/211 
f 90/8/211 89/8/211 169/8/211 
f 181/8/212 182/8/212 106/8/212 
f 106/8/212 90/8/212 181/8/212 
f 182/8/213 175/8/213 120/8/213 
f 120/8/213 106/8/213 182/8/213 
f 175/8/214 176/6/214 121/6/214 
f 121/6/214 120/8/214 175/8/214 
f 176/6/215 177/6/215 107/6/215 
f 107/6/215 121/6/215 176/6/215 
f 177/6/216 178/6/216 91/6/216 
f 91/6/216 107/6/216 177/6/216 
f 178/6/217 170/6/217 88/6/217 
f 88/6/217 91/6/217 178/6/217 
f 170/6/218 169/8/218 89/8/218 
f 89/8/218 88/6/218 170/6/218 
f 159/9/219 179/9/219 79/9/219 
f 79/9/219 78/9/219 159/9/219 
f 179/9/220 180/9/220 99/9/220 
f 99/9/220 79/9/220 179/9/220 
f 180/9/221 165/9/221 113/9/221 
f 113/9/221 99/9/221 180/9/221 
f 165/9/222 166/4/222 114/4/222 
f 114/4/222 113/9/222 165/9/222 
f 166/4/223 167/4/223 100/4/223 
f 100/4/223 114/4/223 166/4/223 
f 167/4/224 168/4/224 80/4/224 
f 80/4/224 100/4/224 167/4/224 
f 168/4/225 160/4/225 77/4/225 
f 77/4/225 80/4/225 168/4/225 
f 160/4/226 159/9/226 78/9/226 
f 78/9/226 77/4/226 160/4/226 
f 181/8/227 169/8/227 92/8/227 
f 92/8/227 95/8/227 181/8/227 
f 169/8/228 171/5/228 93/5/228 
f 93/5/228 92/8/228 169/8/228 
f 171/5/229 172/5/229 94/5/229 
f 94/5/229 93/5/229 171/5/229 
f 172/5/230 173/5/230 108/5/230 
f 108/5/230 94/5/230 172/5/230 
f 173/5/231 174/5/231 122/5/231 
f 122/5/231 108/5/231 173/5/231 
f 174/5/232 175/8/232 123/8/232 
f 123/8/232 122/5/232 174/5/232 
f 175/8/233 182/8/233 109/8/233 
f 109/8/233 123/8/233 175/8/233 
f 182/8/234 181/8/234 95/8/234 
f 95/8/234 109/8/234 182/8/234 
# 356 faces

